<?xml version="1.0" encoding="utf-8"?>
<svg viewBox="103.535 62.5 183.081 205.177" xmlns="http://www.w3.org/2000/svg">
  <rect x="177.581" y="119.389" width="130" height="145" fill="#FEFBFB" transform="matrix(1, 0, 0, 1, -50.505235, -36.616272)"/>
  <path d="M 155.581 101.389 L 171.938 278.089 L 245.581 301.389 L 319.224 278.089 L 335.581 101.389 L 155.581 101.389 Z M 302.349 137.103 L 300.098 158.217 L 245.911 180.267 L 298.179 180.267 L 292.178 245.718 L 246.151 258.532 L 199.838 245.496 L 196.838 212.503 L 219.758 212.503 L 221.258 229.603 L 245.911 235.539 L 271.553 228.668 L 273.286 201.167 L 195.241 200.946 L 193.553 180.275 L 249.151 158.225 L 191.543 158.225 L 188.821 137.11 L 302.349 137.103 Z" style="" transform="matrix(1, 0, 0, 1, -50.505235, -36.616272)"/>
</svg>