<?xml version="1.0" encoding="utf-8"?>
<svg viewBox="147.096 96.59 222.222 219.066" xmlns="http://www.w3.org/2000/svg">
  <g transform="matrix(0.1, 0, 0, -0.1, 147.754597, 322.788191)" fill="#000000" stroke="none">
    <path d="M879 2225 c-410 -77 -734 -375 -839 -771 -138 -520 104 -1066 575 -1299 132 -66 168 -75 195 -50 18 16 20 31 20 164 l0 146 -79 -3 c-173 -8 -243 28 -309 161 -33 66 -56 97 -98 133 -29 25 -54 52 -54 59 0 33 87 21 147 -19 18 -13 54 -51 80 -87 60 -79 109 -109 182 -109 29 0 71 5 92 12 35 10 40 16 54 62 8 28 24 62 34 76 l20 25 -80 11 c-178 26 -286 83 -347 184 -40 67 -50 101 -63 214 -15 128 0 209 55 289 39 56 42 65 33 97 -13 48 -4 199 14 235 8 16 22 31 32 33 30 6 123 -28 205 -75 l77 -44 105 17 c120 19 318 15 407 -10 50 -13 53 -13 88 11 57 39 176 92 222 99 42 6 43 6 59 -32 22 -51 30 -172 15 -229 -11 -45 -11 -48 19 -81 57 -65 73 -111 78 -214 9 -215 -61 -364 -204 -434 -56 -27 -211 -66 -266 -66 -29 0 -37 -13 -17 -26 6 -3 21 -27 32 -53 19 -42 22 -70 27 -294 6 -302 0 -292 137 -237 263 106 484 325 594 591 70 171 100 372 81 552 -16 148 -42 239 -107 372 -140 287 -402 494 -727 576 -110 28 -377 35 -489 14z" style=""/>
    <path d="M390 740 c0 -5 5 -10 10 -10 6 0 10 5 10 10 0 6 -4 10 -10 10 -5 0 -10 -4 -10 -10z"/>
    <path d="M432 699 c2 -7 10 -15 17 -17 8 -3 12 1 9 9 -2 7 -10 15 -17 17 -8 3 -12 -1 -9 -9z"/>
    <path d="M476 641 c-3 -5 1 -14 8 -20 16 -13 32 2 21 19 -8 12 -22 13 -29 1z"/>
    <path d="M530 576 c0 -18 17 -29 30 -21 8 5 7 11 -1 21 -15 18 -29 18 -29 0z"/>
    <path d="M605 530 c-8 -12 20 -24 35 -15 6 3 8 11 5 16 -8 12 -32 12 -40 -1z"/>
    <path d="M784 529 c-3 -6 -2 -15 2 -19 12 -12 38 5 30 19 -9 14 -23 14 -32 0z"/>
    <path d="M703 523 c-22 -8 -14 -23 12 -23 14 0 25 4 25 9 0 11 -21 19 -37 14z"/>
  </g>
</svg>