<?xml version="1.0" encoding="utf-8"?>
<svg viewBox="145.834 98.485 181.188 207.071" xmlns="http://www.w3.org/2000/svg">
  <rect x="173.789" y="104.288" width="136" height="160" fill="#FEFBFB" transform="matrix(1, 0, 0, 1, -5.05007, 11.994827)"/>
  <path d="M 153.611 91.288 L 169.661 271.288 L 241.686 291.288 L 313.898 271.263 L 329.974 91.288 L 153.624 91.288 L 153.611 91.288 Z M 295.036 150.163 L 210.561 150.163 L 212.574 172.775 L 293.036 172.775 L 286.973 240.55 L 241.686 253.1 L 196.461 240.55 L 193.374 205.875 L 215.536 205.875 L 217.111 223.5 L 241.699 230.126 L 241.749 230.113 L 266.349 223.475 L 268.898 194.85 L 192.386 194.85 L 186.436 128.088 L 297.023 128.088 L 295.048 150.163 L 295.036 150.163 Z" style="" transform="matrix(1, 0, 0, 1, -5.05007, 11.994827)"/>
</svg>