<?xml version="1.0" encoding="utf-8"?>
<svg viewBox="242.424 109.848 196.339 204.546" xmlns="http://www.w3.org/2000/svg">
  <rect x="166.015" y="147.237" width="137" height="130" fill="#FEFBFB" transform="matrix(1, 0, 0, 1, 126.894086, 25.884214)"/>
  <path d="M 117.015 86.237 L 117.015 286.237 L 311.015 286.237 L 311.015 86.237 L 117.015 86.237 Z M 222.59 242.224 C 222.59 261.69 211.519 270.544 195.365 270.544 C 180.789 270.544 172.325 262.757 168.024 253.37 L 182.872 244.104 C 185.736 249.277 188.342 253.704 194.589 253.704 C 200.577 253.704 204.354 251.35 204.354 241.904 L 204.354 178.037 L 222.59 178.037 L 222.59 242.224 L 222.59 242.224 Z M 265.697 270.544 C 248.767 270.544 237.825 262.224 232.49 251.344 L 247.331 242.497 C 251.237 249.017 256.32 253.897 265.309 253.897 C 272.855 253.897 277.615 250.004 277.615 244.59 C 277.615 238.15 272.661 235.857 264.332 232.157 L 259.805 230.09 C 246.652 224.324 237.929 217.07 237.929 201.757 C 237.929 187.67 248.301 176.924 264.623 176.924 C 276.211 176.924 284.54 181.091 290.542 191.95 L 276.38 201.317 C 273.276 195.584 269.874 193.25 264.662 193.25 C 259.333 193.25 255.919 196.73 255.919 201.317 C 255.919 206.997 259.282 209.237 267.106 212.717 L 271.652 214.784 C 287.153 221.584 295.883 228.584 295.883 244.317 C 295.928 261.277 283.04 270.517 265.716 270.517 L 265.697 270.544 Z" style="" transform="matrix(1, 0, 0, 1, 126.894086, 25.884214)"/>
</svg>