<svg width="80" height="80" viewBox="0 0 80 80" fill="none" xmlns="http://www.w3.org/2000/svg">
<g clip-path="url(#clip0_209_56)">
<path d="M73.6402 61.6545C69.2907 61.5443 65.9198 61.9864 63.0925 63.2013C62.277 63.5325 60.972 63.5329 60.8632 64.5821C61.2984 65.0242 61.3527 65.7421 61.7333 66.3495C62.3862 67.4538 63.5274 68.9455 64.5606 69.7189C65.7022 70.6025 66.8441 71.486 68.04 72.2594C70.1605 73.5851 72.5529 74.3582 74.6188 75.6839C75.8153 76.4565 77.0108 77.4513 78.207 78.2798C78.8053 78.7212 79.1856 79.4395 79.9469 79.7157V79.5501C79.5662 79.0529 79.4574 78.3349 79.0771 77.7826C78.5338 77.2303 77.9898 76.733 77.4461 76.1807C75.8692 74.0269 73.9121 72.1489 71.7916 70.6025C70.0521 69.3873 66.2459 67.7303 65.5392 65.6867C65.5392 65.6867 65.4846 65.6316 65.4304 65.5765C66.6265 65.466 68.04 65.0242 69.1819 64.6926C71.0306 64.1954 72.7159 64.3059 74.6188 63.809C75.4886 63.5879 76.3587 63.3118 77.2285 63.0356V62.5388C76.2502 61.5443 75.5432 60.219 74.51 59.2799C71.7373 56.8492 68.6925 54.4747 65.5392 52.4865C63.8535 51.3818 61.6788 50.6635 59.8847 49.7249C59.2325 49.3929 58.1448 49.2277 57.7645 48.6753C56.7856 47.4602 56.2419 45.8587 55.5352 44.4224C53.959 41.3843 52.4361 38.0157 51.0769 34.8123C50.0986 32.6581 49.5004 30.5039 48.3042 28.5157C42.7043 19.1263 36.6149 13.4375 27.2634 7.85888C25.2517 6.69914 22.8597 6.20192 20.3042 5.59451C18.9454 5.53907 17.5858 5.42889 16.2266 5.37345C15.3568 4.98675 14.4867 3.93756 13.7254 3.44033C10.627 1.45178 2.63436 -2.8559 0.350805 2.83292C-1.11722 6.423 2.52556 9.95761 3.77596 11.7805C4.70064 13.0508 5.89648 14.4867 6.54898 15.9229C6.92963 16.8612 7.03809 17.856 7.41874 18.8502C8.28885 21.2798 9.10404 23.9866 10.246 26.2514C10.8443 27.4111 11.4964 28.6263 12.2577 29.6755C12.6926 30.2829 13.4535 30.5594 13.6169 31.5535C12.856 32.6581 12.8014 34.3151 12.3662 35.6959C10.409 41.937 11.1703 49.6695 13.943 54.2536C14.8128 55.6341 16.879 58.6725 19.6517 57.5124C22.0983 56.5183 21.5546 53.37 22.2614 50.6084C22.4248 49.9452 22.3159 49.5038 22.642 49.062C22.6423 49.1171 22.642 49.1726 22.642 49.1726C23.4033 50.719 24.1643 52.2103 24.871 53.7567C26.5566 56.4629 29.4924 59.2799 31.9389 61.1579C33.2443 62.1517 34.2771 63.8641 35.9081 64.4718V64.3059H35.7993C35.4729 63.8086 34.9838 63.5879 34.5489 63.2012C33.5703 62.2071 32.4826 60.992 31.7217 59.8873C29.4385 56.7941 27.4264 53.37 25.6323 49.8351C24.7625 48.123 24.0012 46.245 23.2945 44.533C22.9681 43.8698 22.9681 42.876 22.4244 42.5448C21.6089 43.7596 20.413 44.8091 19.8148 46.3005C18.7823 48.6754 18.6732 51.6026 18.2925 54.6403C18.0752 54.6957 18.1837 54.6403 18.0749 54.7508C16.3354 54.3087 15.7371 52.4865 15.0846 50.9397C13.4535 47.0184 13.1817 40.7218 14.5955 36.1931C14.9761 35.033 16.6072 31.3878 15.9547 30.2832C15.6286 29.2337 14.5409 28.6263 13.943 27.7978C13.2363 26.7482 12.475 25.4229 11.9859 24.2628C10.6809 21.17 10.0284 17.7455 8.61492 14.6523C7.96243 13.2161 6.82082 11.7251 5.89648 10.3997C4.86368 8.90842 3.72173 7.85888 2.90619 6.09138C2.63469 5.48397 2.25369 4.48987 2.68857 3.82701C2.79738 3.38523 3.01465 3.21961 3.44987 3.10907C4.1566 2.50131 6.16831 3.2747 6.87503 3.60595C8.88674 4.43407 10.572 5.20781 12.2577 6.36754C13.0186 6.91986 13.8342 7.9694 14.8127 8.24556H15.9547C17.6946 8.63191 19.6517 8.35609 21.2828 8.85297C24.1646 9.79163 26.7739 11.1728 29.112 12.6641C36.2345 17.2483 42.106 23.7659 46.0752 31.5535C46.7277 32.8234 46.9992 33.9838 47.5974 35.3092C48.7394 38.0157 50.1528 40.7773 51.2945 43.4283C52.4361 46.0239 53.5234 48.6754 55.1545 50.8295C55.9704 51.9889 59.2322 52.5967 60.7002 53.2044C61.7875 53.7013 63.4732 54.1435 64.4518 54.7509C66.3001 55.9102 68.1488 57.2363 69.8886 58.5066C70.7587 59.1691 73.4768 60.5502 73.6402 61.6545Z" fill="#00AEFF"/>
<path d="M18.1831 13.6579C17.2587 13.6579 16.6066 13.7688 15.9541 13.9344C15.9541 13.9341 15.9541 13.9898 15.9541 14.0449H16.0629C16.4981 14.9285 17.2587 15.5362 17.8024 16.3093C18.2377 17.1928 18.618 18.0768 19.0532 18.9607C19.1074 18.9052 19.1617 18.8502 19.1617 18.8502C19.9233 18.2975 20.3036 17.4139 20.3036 16.0886C19.9772 15.7019 19.923 15.3152 19.6511 14.9285C19.325 14.3758 18.618 14.1 18.1831 13.6579Z" fill="#00AEFF"/>
</g>
<defs>
<clipPath id="clip0_209_56">
<rect width="80" height="80" fill="white"/>
</clipPath>
</defs>
</svg>
