<svg width="80" height="80" viewBox="0 0 80 80" fill="none" xmlns="http://www.w3.org/2000/svg">
<path d="M68.8376 46.0474C66.0543 46.0668 63.6354 46.9605 61.6099 48.2817C60.8667 46.3194 60.1236 44.5707 59.9924 43.2884C59.8467 41.7923 59.6718 40.8792 59.8467 39.0917C60.0215 37.3042 60.8084 34.759 60.7939 34.5647C60.7793 34.3704 60.619 33.4572 59.0161 33.4378C57.4132 33.4183 56.0288 33.8458 55.8685 34.4092C55.7083 34.9727 55.4022 36.255 55.1982 37.5762C54.9214 39.5191 51.9924 46.4554 50.3166 50.0886C49.7775 48.6703 49.3112 47.4268 49.2092 46.4359C49.0634 44.9399 48.8886 44.0267 49.0634 42.2392C49.2383 40.4517 50.0252 37.9065 50.0106 37.7122C49.996 37.5179 49.8358 36.6047 48.2328 36.5853C46.6299 36.5659 45.2456 36.9933 45.0853 37.5568C44.925 38.1202 44.7501 39.4414 44.415 40.7237C44.0798 42.0061 40.1891 53.5859 39.1691 56.578C38.6445 58.1129 38.1928 59.337 37.8722 60.1724C37.8722 60.1724 37.8576 60.2307 37.8139 60.3279C37.537 61.0467 37.3767 61.4353 37.3767 61.4353C37.3767 61.4353 37.3767 61.4353 37.3767 61.4548C37.1582 61.9793 36.925 62.4651 36.8084 62.4651C36.721 62.4651 36.5607 61.0662 36.8376 59.1621C37.4205 55.1402 38.8048 48.884 38.7902 48.6703C38.7902 48.5537 39.0525 47.4657 37.8868 46.9022C36.7501 46.3388 36.3421 47.2714 36.2401 47.2714C36.1381 47.2714 36.0653 47.6017 36.0653 47.6017C36.0653 47.6017 37.333 40.5683 33.6463 40.5683C31.344 40.5683 28.1673 43.9296 26.5935 46.9605C25.6026 47.6794 23.4897 49.2143 21.231 50.8658C20.3713 51.507 19.4824 52.1481 18.6518 52.7504C18.5935 52.6727 18.5352 52.5756 18.4769 52.4979C14.0179 46.1445 5.77019 41.6563 6.11992 33.1269C6.25107 30.0182 7.05252 21.8579 21.9596 11.949C34.2292 3.88585 43.9924 6.12021 45.6828 11.0747C48.1017 18.1469 40.4514 31.2811 27.7738 33.1852C22.9359 33.9041 20.4004 31.4171 19.7593 30.4845C19.0889 29.513 18.9869 29.4548 18.7392 29.6491C18.3312 29.9405 18.5935 30.8148 18.7392 31.32C19.1181 32.6412 20.6773 34.9727 23.3148 36.119C25.6463 37.1293 31.3148 37.6928 38.1782 34.1566C45.8576 30.1931 51.8613 19.1767 50.0981 9.94778C48.3348 0.582873 36.6773 -2.50638 25.6463 2.72009C19.0889 5.82877 11.9778 10.7249 6.86309 17.0977C0.786588 24.6752 -0.17516 31.2617 0.218282 34.0206C1.63176 43.813 11.7593 50.1858 15.8103 54.9071C15.6062 55.0625 15.4168 55.1985 15.2565 55.3151C13.231 56.6557 5.5079 62.0376 3.5844 67.7304C1.39861 74.1809 3.93413 78.8051 5.6099 79.4268C10.8121 81.3503 16.16 77.8919 19.0307 72.1797C21.9013 66.4675 21.5516 59.0455 20.2256 55.6454C20.211 55.6065 20.1964 55.5677 20.1673 55.5288C20.6919 55.1208 21.231 54.6934 21.7556 54.2854C22.7902 53.4693 23.8103 52.7116 24.6846 52.0899C24.1891 53.8968 23.8248 56.0534 23.65 59.1621C23.4314 62.8148 24.5534 67.5555 26.0252 69.4208C26.6809 70.2368 27.4532 70.2562 27.9487 70.2562C29.6682 70.2562 30.4405 68.3521 31.3002 66.0984C32.3494 63.3394 33.2966 60.1336 33.2966 60.1336C33.2966 60.1336 32.1163 68.799 35.3221 68.799C36.4879 68.799 37.6682 66.7784 38.1928 65.7486V65.7681C38.1928 65.7681 38.2219 65.7098 38.2802 65.5738C38.3968 65.3212 38.4696 65.1657 38.4696 65.1657V65.1269C38.9359 64.0388 39.9851 61.5713 41.5443 57.4718C43.5552 52.187 45.4933 45.5811 45.4933 45.5811C45.4933 45.5811 45.6682 47.1937 46.2656 49.8749C46.6154 51.4487 47.344 53.1779 47.9268 54.8488C47.4605 55.7231 47.1691 56.2089 47.1691 56.2089C47.1691 56.2089 47.1691 56.2089 47.1837 56.2283C46.8048 56.8889 46.3968 57.6078 45.945 58.3072C44.3567 60.833 42.4624 63.728 42.2001 64.5634C41.894 65.5543 41.9669 66.2732 42.5498 66.8561C42.9724 67.2835 43.7301 67.3418 44.5024 67.2835C45.9305 67.1475 46.9359 66.6812 47.4314 66.3898C48.2037 66.0206 49.1072 65.4572 49.9523 64.6217C51.5115 63.0868 52.4587 60.8913 52.3713 57.9963C52.3276 56.4031 51.9341 54.81 51.4532 53.3139C51.599 53.0419 51.7301 52.7699 51.8758 52.4979C54.3385 47.6988 56.2474 42.4335 56.2474 42.4335C56.2474 42.4335 56.4223 44.0461 57.0197 46.7274C57.3112 48.0874 57.9086 49.5641 58.4332 51.0018C56.1163 53.5082 54.6882 56.4226 54.1782 58.3266C53.2602 61.8628 53.9742 63.456 55.3294 63.8251C55.9414 64 56.8157 63.6114 57.4569 63.2422C58.2729 62.8925 59.2347 62.2902 60.1527 61.3965C61.7119 59.8616 63.2128 57.7243 63.1254 54.8294C63.0817 53.5082 62.8194 52.2064 62.4551 50.9435C64.4223 49.8555 66.9578 49.2532 70.1928 49.7583C77.129 50.8464 78.4988 56.6169 78.2365 59.0455C77.9742 61.4742 76.517 62.7954 76.0361 63.2034C75.5552 63.6114 75.395 63.7474 75.4387 64.0388C75.497 64.4663 75.7301 64.4469 76.1381 64.3691C76.7064 64.2331 79.7811 62.4068 79.9123 57.9381C80.1308 52.2259 76.0507 45.9891 68.8376 46.0474ZM15.3294 70.1008C13.027 73.4426 9.82119 74.7055 8.43686 73.6369C6.95052 72.4906 7.5334 67.5555 10.3603 64.0194C12.0798 61.8628 14.2948 59.8616 15.7665 58.6375C16.1017 58.3655 16.5971 57.9769 17.1946 57.4912C17.2966 57.4135 17.3549 57.3746 17.3549 57.3746C17.4715 57.2775 17.588 57.1803 17.7046 57.0832C18.7392 62.1348 17.7483 66.5841 15.3294 70.1008ZM32.0871 54.9071C31.2857 57.5106 29.6099 64.1749 28.5899 63.8057C27.7155 63.4948 27.1764 58.4432 28.415 53.4499C29.0416 50.9435 30.3676 47.9514 31.1399 46.7857C32.3931 44.9205 33.7775 44.2987 34.1126 45.0565C34.5352 46.0474 32.5826 53.275 32.0871 54.9071ZM45.9159 63.728C45.5807 63.9611 45.2602 64.1166 45.1144 64C45.0124 63.9223 45.2602 63.6114 45.2602 63.6114C45.2602 63.6114 46.9942 61.1245 47.6791 59.9976C48.0726 59.337 48.5389 58.5598 49.0343 57.6855V57.9381C49.0343 60.9107 46.8777 62.912 45.9159 63.728ZM56.5826 60.4833C56.3348 60.2501 56.3786 59.473 57.2092 57.0443C57.5297 56.0923 58.2875 54.4991 59.5844 52.9642C59.7301 53.5859 59.8321 54.1882 59.8175 54.7517C59.803 58.5015 57.792 59.9004 56.5826 60.4833Z" fill="#00AEFF"/>
</svg>
