<svg width="300" height="255" viewBox="0 0 300 255" fill="none" xmlns="http://www.w3.org/2000/svg">
<g clip-path="url(#clip0_209_59)">
<path d="M174.75 44.8601C180.372 44.8601 184.93 39.5443 184.93 32.9869C184.93 26.4295 180.372 21.1137 174.75 21.1137C169.127 21.1137 164.569 26.4295 164.569 32.9869C164.569 39.5443 169.127 44.8601 174.75 44.8601Z" fill="#F2F2F2"/>
<path d="M253.723 221.072C268.855 207.63 276.083 185.042 271.558 163.494C271.445 162.959 271.327 162.425 271.202 161.892C268.202 149.101 260.781 136.945 249.964 132.858C240.882 129.427 230.969 132.065 221.494 130.701C202.895 128.022 188.475 110.471 178.329 92.0943C168.183 73.7178 160.385 53.148 146.903 37.9663C124.68 12.942 88.4291 7.5542 60.8759 23.8432C33.3227 40.1322 15.7716 76.2708 16.5201 112.287C17.2686 148.304 35.6018 182.738 62.2262 201.008C72.0069 207.72 83.3192 212.474 94.5773 210.81C104.346 209.367 113.222 203.245 122.944 201.428C138.23 198.571 153.419 206.631 166.64 216.024C179.861 225.417 192.632 236.55 207.656 240.905C222.245 245.133 240.318 232.98 253.723 221.072Z" fill="#F2F2F2"/>
<path d="M231.981 24.5995C231.65 24.3416 231.314 24.097 230.982 23.848C221.394 16.6957 211.116 10.8853 200.362 6.53674L197.868 46.6555H182.06V0.68034C181.065 0.440215 180.062 0.21343 179.059 -1.52588e-05V46.6555H160.274C149.932 46.6555 140.014 41.8642 132.701 33.3356C125.388 24.807 121.28 13.2397 121.28 1.17843V1.17839C120.273 1.43186 119.275 1.70311 118.276 1.99215V46.6555H102.975L100.599 8.39994C89.5478 13.3431 79.0559 19.8436 69.3571 27.7568C69.1894 27.8902 69.0216 28.028 68.8577 28.1614C68.015 28.8507 67.1838 29.5532 66.3564 30.2647V183.318H111.451L110.654 170.445L106.269 99.7633H194.57L190.185 170.445L189.388 183.318H233.983V26.147C233.32 25.6223 232.652 25.1065 231.981 24.5995ZM118.276 88.0905H105.545L103.192 50.1596H118.276V88.0905ZM179.059 88.0905H157.677V87.339C157.677 86.9778 157.616 86.6201 157.498 86.2864C157.379 85.9526 157.205 85.6495 156.986 85.3942C156.767 85.139 156.506 84.9367 156.22 84.7988C155.934 84.661 155.627 84.5903 155.317 84.5909H146.021C145.712 84.5908 145.406 84.6618 145.12 84.7998C144.834 84.9379 144.574 85.1403 144.355 85.3955C144.136 85.6507 143.963 85.9537 143.844 86.2872C143.726 86.6207 143.665 86.9781 143.665 87.339V88.0905H121.28V50.1596H179.059V88.0905ZM182.06 88.0905V50.1596H197.651L195.298 88.0905H182.06Z" fill="#3F3D56"/>
<path d="M0 193.119C3.31229 197.697 6.89491 201.998 10.7216 205.993L289.278 206.437C293.105 202.443 296.688 198.141 300 193.564L0 193.119Z" fill="#3F3D56"/>
<path d="M188.898 151.898V190.008C188.899 190.494 189.064 190.96 189.359 191.303C189.653 191.647 190.053 191.84 190.469 191.84H238.893C239.31 191.84 239.709 191.647 240.004 191.303C240.298 190.96 240.464 190.494 240.464 190.008V151.898C240.463 151.413 240.297 150.948 240.003 150.605C239.708 150.262 239.31 150.069 238.893 150.068H190.469C190.053 150.069 189.654 150.262 189.36 150.605C189.065 150.948 188.899 151.413 188.898 151.898V151.898Z" fill="#3F3D56"/>
<path d="M190.034 152.372V189.538C190.035 189.798 190.123 190.047 190.28 190.23C190.438 190.414 190.651 190.517 190.874 190.517H238.49C238.713 190.517 238.926 190.414 239.083 190.23C239.24 190.047 239.329 189.798 239.329 189.538V152.372C239.329 152.112 239.241 151.863 239.084 151.679C238.926 151.495 238.713 151.392 238.49 151.391H190.874C190.651 151.392 190.437 151.495 190.28 151.679C190.123 151.863 190.034 152.112 190.034 152.372V152.372Z" fill="#00AEFF"/>
<path d="M187.885 197.441C187.974 197.571 188.087 197.675 188.215 197.747C188.344 197.819 188.484 197.855 188.626 197.855H240.478C240.619 197.854 240.759 197.817 240.887 197.746C241.015 197.675 241.128 197.571 241.217 197.443C241.307 197.314 241.37 197.164 241.404 197.004C241.437 196.843 241.439 196.675 241.41 196.514L240.605 192.055C240.572 191.873 240.5 191.704 240.396 191.562C240.293 191.421 240.16 191.313 240.011 191.246C239.903 191.197 239.789 191.172 239.673 191.172H189.428C189.312 191.172 189.197 191.197 189.09 191.246C188.941 191.313 188.808 191.421 188.704 191.562C188.601 191.704 188.529 191.873 188.495 192.055L187.691 196.514C187.662 196.675 187.665 196.843 187.698 197.003C187.732 197.163 187.796 197.313 187.885 197.441V197.441Z" fill="#2F2E41"/>
<path d="M237.894 193.092H239.119C239.221 193.092 239.305 192.995 239.305 192.875V192.192C239.305 192.072 239.221 191.975 239.119 191.975H237.894C237.791 191.975 237.708 192.072 237.708 192.192V192.875C237.708 192.995 237.791 193.092 237.894 193.092Z" fill="#3F3D56"/>
<path d="M234.699 193.092H235.924C236.027 193.092 236.11 192.995 236.11 192.875V192.192C236.11 192.072 236.027 191.975 235.924 191.975H234.699C234.597 191.975 234.513 192.072 234.513 192.192V192.875C234.513 192.995 234.597 193.092 234.699 193.092Z" fill="#3F3D56"/>
<path d="M231.506 193.092H232.731C232.834 193.092 232.917 192.995 232.917 192.875V192.192C232.917 192.072 232.834 191.975 232.731 191.975H231.506C231.403 191.975 231.32 192.072 231.32 192.192V192.875C231.32 192.995 231.403 193.092 231.506 193.092Z" fill="#3F3D56"/>
<path d="M228.312 193.092H229.537C229.639 193.092 229.723 192.995 229.723 192.875V192.192C229.723 192.072 229.639 191.975 229.537 191.975H228.312C228.209 191.975 228.126 192.072 228.126 192.192V192.875C228.126 192.995 228.209 193.092 228.312 193.092Z" fill="#3F3D56"/>
<path d="M225.117 193.092H226.342C226.445 193.092 226.528 192.995 226.528 192.875V192.192C226.528 192.072 226.445 191.975 226.342 191.975H225.117C225.015 191.975 224.931 192.072 224.931 192.192V192.875C224.931 192.995 225.015 193.092 225.117 193.092Z" fill="#3F3D56"/>
<path d="M221.924 193.092H223.149C223.252 193.092 223.335 192.995 223.335 192.875V192.192C223.335 192.072 223.252 191.975 223.149 191.975H221.924C221.821 191.975 221.738 192.072 221.738 192.192V192.875C221.738 192.995 221.821 193.092 221.924 193.092Z" fill="#3F3D56"/>
<path d="M218.73 193.092H219.954C220.057 193.092 220.141 192.995 220.141 192.875V192.192C220.141 192.072 220.057 191.975 219.954 191.975H218.73C218.627 191.975 218.544 192.072 218.544 192.192V192.875C218.544 192.995 218.627 193.092 218.73 193.092Z" fill="#3F3D56"/>
<path d="M215.535 193.092H216.76C216.863 193.092 216.946 192.995 216.946 192.875V192.192C216.946 192.072 216.863 191.975 216.76 191.975H215.535C215.433 191.975 215.349 192.072 215.349 192.192V192.875C215.349 192.995 215.433 193.092 215.535 193.092Z" fill="#3F3D56"/>
<path d="M212.342 193.092H213.567C213.67 193.092 213.753 192.995 213.753 192.875V192.192C213.753 192.072 213.67 191.975 213.567 191.975H212.342C212.239 191.975 212.156 192.072 212.156 192.192V192.875C212.156 192.995 212.239 193.092 212.342 193.092Z" fill="#3F3D56"/>
<path d="M209.148 193.092H210.372C210.475 193.092 210.559 192.995 210.559 192.875V192.192C210.559 192.072 210.475 191.975 210.372 191.975H209.148C209.045 191.975 208.962 192.072 208.962 192.192V192.875C208.962 192.995 209.045 193.092 209.148 193.092Z" fill="#3F3D56"/>
<path d="M205.954 193.092H207.179C207.282 193.092 207.365 192.995 207.365 192.875V192.192C207.365 192.072 207.282 191.975 207.179 191.975H205.954C205.852 191.975 205.768 192.072 205.768 192.192V192.875C205.768 192.995 205.852 193.092 205.954 193.092Z" fill="#3F3D56"/>
<path d="M202.76 193.092H203.985C204.088 193.092 204.171 192.995 204.171 192.875V192.192C204.171 192.072 204.088 191.975 203.985 191.975H202.76C202.657 191.975 202.574 192.072 202.574 192.192V192.875C202.574 192.995 202.657 193.092 202.76 193.092Z" fill="#3F3D56"/>
<path d="M199.566 193.092H200.79C200.893 193.092 200.977 192.995 200.977 192.875V192.192C200.977 192.072 200.893 191.975 200.79 191.975H199.566C199.463 191.975 199.38 192.072 199.38 192.192V192.875C199.38 192.995 199.463 193.092 199.566 193.092Z" fill="#3F3D56"/>
<path d="M196.372 193.092H197.597C197.7 193.092 197.783 192.995 197.783 192.875V192.192C197.783 192.072 197.7 191.975 197.597 191.975H196.372C196.27 191.975 196.186 192.072 196.186 192.192V192.875C196.186 192.995 196.27 193.092 196.372 193.092Z" fill="#3F3D56"/>
<path d="M193.178 193.092H194.403C194.506 193.092 194.589 192.995 194.589 192.875V192.192C194.589 192.072 194.506 191.975 194.403 191.975H193.178C193.075 191.975 192.992 192.072 192.992 192.192V192.875C192.992 192.995 193.075 193.092 193.178 193.092Z" fill="#3F3D56"/>
<path d="M189.984 193.092H191.208C191.311 193.092 191.395 192.995 191.395 192.875V192.192C191.395 192.072 191.311 191.975 191.208 191.975H189.984C189.881 191.975 189.798 192.072 189.798 192.192V192.875C189.798 192.995 189.881 193.092 189.984 193.092Z" fill="#3F3D56"/>
<path d="M237.932 194.955H239.157C239.259 194.955 239.343 194.858 239.343 194.738V194.054C239.343 193.935 239.259 193.837 239.157 193.837H237.932C237.829 193.837 237.746 193.935 237.746 194.054V194.738C237.746 194.858 237.829 194.955 237.932 194.955Z" fill="#3F3D56"/>
<path d="M234.738 194.955H235.962C236.065 194.955 236.148 194.858 236.148 194.738V194.054C236.148 193.935 236.065 193.837 235.962 193.837H234.738C234.635 193.837 234.551 193.935 234.551 194.054V194.738C234.551 194.858 234.635 194.955 234.738 194.955Z" fill="#3F3D56"/>
<path d="M231.543 194.955H232.768C232.871 194.955 232.954 194.858 232.954 194.738V194.054C232.954 193.935 232.871 193.837 232.768 193.837H231.543C231.44 193.837 231.357 193.935 231.357 194.054V194.738C231.357 194.858 231.44 194.955 231.543 194.955Z" fill="#3F3D56"/>
<path d="M228.35 194.955H229.575C229.677 194.955 229.761 194.858 229.761 194.738V194.054C229.761 193.935 229.677 193.837 229.575 193.837H228.35C228.247 193.837 228.164 193.935 228.164 194.054V194.738C228.164 194.858 228.247 194.955 228.35 194.955Z" fill="#3F3D56"/>
<path d="M225.156 194.955H226.38C226.483 194.955 226.566 194.858 226.566 194.738V194.054C226.566 193.935 226.483 193.837 226.38 193.837H225.156C225.053 193.837 224.969 193.935 224.969 194.054V194.738C224.969 194.858 225.053 194.955 225.156 194.955Z" fill="#3F3D56"/>
<path d="M221.961 194.955H223.186C223.289 194.955 223.372 194.858 223.372 194.738V194.054C223.372 193.935 223.289 193.837 223.186 193.837H221.961C221.858 193.837 221.775 193.935 221.775 194.054V194.738C221.775 194.858 221.858 194.955 221.961 194.955Z" fill="#3F3D56"/>
<path d="M218.768 194.955H219.993C220.095 194.955 220.179 194.858 220.179 194.738V194.054C220.179 193.935 220.095 193.837 219.993 193.837H218.768C218.665 193.837 218.582 193.935 218.582 194.054V194.738C218.582 194.858 218.665 194.955 218.768 194.955Z" fill="#3F3D56"/>
<path d="M215.574 194.955H216.798C216.901 194.955 216.984 194.858 216.984 194.738V194.054C216.984 193.935 216.901 193.837 216.798 193.837H215.574C215.471 193.837 215.387 193.935 215.387 194.054V194.738C215.387 194.858 215.471 194.955 215.574 194.955Z" fill="#3F3D56"/>
<path d="M212.379 194.955H213.604C213.707 194.955 213.79 194.858 213.79 194.738V194.054C213.79 193.935 213.707 193.837 213.604 193.837H212.379C212.276 193.837 212.193 193.935 212.193 194.054V194.738C212.193 194.858 212.276 194.955 212.379 194.955Z" fill="#3F3D56"/>
<path d="M209.186 194.955H210.411C210.513 194.955 210.597 194.858 210.597 194.738V194.054C210.597 193.935 210.513 193.837 210.411 193.837H209.186C209.083 193.837 209 193.935 209 194.054V194.738C209 194.858 209.083 194.955 209.186 194.955Z" fill="#3F3D56"/>
<path d="M205.992 194.955H207.216C207.319 194.955 207.402 194.858 207.402 194.738V194.054C207.402 193.935 207.319 193.837 207.216 193.837H205.992C205.889 193.837 205.805 193.935 205.805 194.054V194.738C205.805 194.858 205.889 194.955 205.992 194.955Z" fill="#3F3D56"/>
<path d="M202.798 194.955H204.023C204.126 194.955 204.209 194.858 204.209 194.738V194.054C204.209 193.935 204.126 193.837 204.023 193.837H202.798C202.695 193.837 202.612 193.935 202.612 194.054V194.738C202.612 194.858 202.695 194.955 202.798 194.955Z" fill="#3F3D56"/>
<path d="M199.604 194.955H200.829C200.931 194.955 201.015 194.858 201.015 194.738V194.054C201.015 193.935 200.931 193.837 200.829 193.837H199.604C199.501 193.837 199.418 193.935 199.418 194.054V194.738C199.418 194.858 199.501 194.955 199.604 194.955Z" fill="#3F3D56"/>
<path d="M196.409 194.955H197.634C197.737 194.955 197.82 194.858 197.82 194.738V194.054C197.82 193.935 197.737 193.837 197.634 193.837H196.409C196.307 193.837 196.223 193.935 196.223 194.054V194.738C196.223 194.858 196.307 194.955 196.409 194.955Z" fill="#3F3D56"/>
<path d="M193.216 194.955H194.441C194.544 194.955 194.627 194.858 194.627 194.738V194.054C194.627 193.935 194.544 193.837 194.441 193.837H193.216C193.113 193.837 193.03 193.935 193.03 194.054V194.738C193.03 194.858 193.113 194.955 193.216 194.955Z" fill="#3F3D56"/>
<path d="M190.022 194.955H191.246C191.349 194.955 191.433 194.858 191.433 194.738V194.054C191.433 193.935 191.349 193.837 191.246 193.837H190.022C189.919 193.837 189.836 193.935 189.836 194.054V194.738C189.836 194.858 189.919 194.955 190.022 194.955Z" fill="#3F3D56"/>
<path d="M211.422 197.19H223.826C223.928 197.19 224.012 197.093 224.012 196.973V196.29C224.012 196.17 223.928 196.072 223.826 196.072H211.422C211.319 196.072 211.236 196.17 211.236 196.29V196.973C211.236 197.093 211.319 197.19 211.422 197.19Z" fill="#3F3D56"/>
<path d="M198.28 159.522H197.196C196.867 159.522 196.601 159.833 196.601 160.216C196.601 160.6 196.867 160.911 197.196 160.911H198.28C198.609 160.911 198.875 160.6 198.875 160.216C198.875 159.833 198.609 159.522 198.28 159.522Z" fill="white"/>
<path d="M210.68 159.522H209.596C209.267 159.522 209.001 159.833 209.001 160.216C209.001 160.6 209.267 160.911 209.596 160.911H210.68C211.009 160.911 211.276 160.6 211.276 160.216C211.276 159.833 211.009 159.522 210.68 159.522Z" fill="white"/>
<path d="M214.194 159.522H213.11C212.781 159.522 212.515 159.833 212.515 160.216C212.515 160.6 212.781 160.911 213.11 160.911H214.194C214.523 160.911 214.789 160.6 214.789 160.216C214.789 159.833 214.523 159.522 214.194 159.522Z" fill="white"/>
<path d="M207.308 159.406H200.569C200.24 159.406 199.974 159.717 199.974 160.101C199.974 160.484 200.24 160.795 200.569 160.795H207.308C207.636 160.795 207.903 160.484 207.903 160.101C207.903 159.717 207.636 159.406 207.308 159.406Z" fill="white"/>
<path d="M223.842 159.406H217.103C216.774 159.406 216.508 159.717 216.508 160.101C216.508 160.484 216.774 160.795 217.103 160.795H223.842C224.171 160.795 224.437 160.484 224.437 160.101C224.437 159.717 224.171 159.406 223.842 159.406Z" fill="white"/>
<path d="M201.587 162.656H200.502C200.174 162.656 199.907 162.967 199.907 163.35C199.907 163.733 200.174 164.044 200.502 164.044H201.587C201.915 164.044 202.182 163.733 202.182 163.35C202.182 162.967 201.915 162.656 201.587 162.656Z" fill="white"/>
<path d="M213.987 162.656H212.903C212.574 162.656 212.308 162.967 212.308 163.35C212.308 163.733 212.574 164.044 212.903 164.044H213.987C214.316 164.044 214.582 163.733 214.582 163.35C214.582 162.967 214.316 162.656 213.987 162.656Z" fill="white"/>
<path d="M217.501 162.656H216.416C216.088 162.656 215.821 162.967 215.821 163.35C215.821 163.733 216.088 164.044 216.416 164.044H217.501C217.829 164.044 218.096 163.733 218.096 163.35C218.096 162.967 217.829 162.656 217.501 162.656Z" fill="white"/>
<path d="M210.614 162.54H203.875C203.547 162.54 203.28 162.851 203.28 163.234C203.28 163.618 203.547 163.928 203.875 163.928H210.614C210.943 163.928 211.209 163.618 211.209 163.234C211.209 162.851 210.943 162.54 210.614 162.54Z" fill="white"/>
<path d="M227.148 162.54H220.41C220.081 162.54 219.814 162.851 219.814 163.234C219.814 163.618 220.081 163.928 220.41 163.928H227.148C227.477 163.928 227.744 163.618 227.744 163.234C227.744 162.851 227.477 162.54 227.148 162.54Z" fill="white"/>
<path d="M204.893 165.789H203.809C203.48 165.789 203.214 166.1 203.214 166.483C203.214 166.867 203.48 167.178 203.809 167.178H204.893C205.222 167.178 205.489 166.867 205.489 166.483C205.489 166.1 205.222 165.789 204.893 165.789Z" fill="white"/>
<path d="M217.294 165.789H216.209C215.881 165.789 215.614 166.1 215.614 166.483C215.614 166.867 215.881 167.178 216.209 167.178H217.294C217.622 167.178 217.889 166.867 217.889 166.483C217.889 166.1 217.622 165.789 217.294 165.789Z" fill="white"/>
<path d="M220.807 165.789H219.723C219.394 165.789 219.128 166.1 219.128 166.483C219.128 166.867 219.394 167.178 219.723 167.178H220.807C221.136 167.178 221.403 166.867 221.403 166.483C221.403 166.1 221.136 165.789 220.807 165.789Z" fill="white"/>
<path d="M213.921 165.673H207.182C206.853 165.673 206.587 165.984 206.587 166.368C206.587 166.751 206.853 167.062 207.182 167.062H213.921C214.25 167.062 214.516 166.751 214.516 166.368C214.516 165.984 214.25 165.673 213.921 165.673Z" fill="white"/>
<path d="M230.455 165.673H223.716C223.388 165.673 223.121 165.984 223.121 166.368C223.121 166.751 223.388 167.062 223.716 167.062H230.455C230.784 167.062 231.05 166.751 231.05 166.368C231.05 165.984 230.784 165.673 230.455 165.673Z" fill="white"/>
<path d="M208.201 168.923H207.117C206.788 168.923 206.521 169.233 206.521 169.617C206.521 170 206.788 170.311 207.117 170.311H208.201C208.53 170.311 208.796 170 208.796 169.617C208.796 169.233 208.53 168.923 208.201 168.923Z" fill="white"/>
<path d="M220.601 168.923H219.517C219.188 168.923 218.922 169.233 218.922 169.617C218.922 170 219.188 170.311 219.517 170.311H220.601C220.93 170.311 221.197 170 221.197 169.617C221.197 169.233 220.93 168.923 220.601 168.923Z" fill="white"/>
<path d="M224.114 168.923H223.03C222.701 168.923 222.435 169.233 222.435 169.617C222.435 170 222.701 170.311 223.03 170.311H224.114C224.443 170.311 224.709 170 224.709 169.617C224.709 169.233 224.443 168.923 224.114 168.923Z" fill="white"/>
<path d="M217.228 168.807H210.489C210.16 168.807 209.894 169.118 209.894 169.501C209.894 169.884 210.16 170.195 210.489 170.195H217.228C217.556 170.195 217.823 169.884 217.823 169.501C217.823 169.118 217.556 168.807 217.228 168.807Z" fill="white"/>
<path d="M210.68 181.383H209.596C209.267 181.383 209.001 181.694 209.001 182.077C209.001 182.46 209.267 182.771 209.596 182.771H210.68C211.009 182.771 211.276 182.46 211.276 182.077C211.276 181.694 211.009 181.383 210.68 181.383Z" fill="white"/>
<path d="M214.194 181.383H213.11C212.781 181.383 212.515 181.694 212.515 182.077C212.515 182.46 212.781 182.771 213.11 182.771H214.194C214.523 182.771 214.789 182.46 214.789 182.077C214.789 181.694 214.523 181.383 214.194 181.383Z" fill="white"/>
<path d="M223.842 181.498H217.103C216.774 181.498 216.508 181.809 216.508 182.193C216.508 182.576 216.774 182.887 217.103 182.887H223.842C224.171 182.887 224.437 182.576 224.437 182.193C224.437 181.809 224.171 181.498 223.842 181.498Z" fill="white"/>
<path d="M198.28 181.383H197.196C196.867 181.383 196.601 181.694 196.601 182.077C196.601 182.46 196.867 182.771 197.196 182.771H198.28C198.609 182.771 198.875 182.46 198.875 182.077C198.875 181.694 198.609 181.383 198.28 181.383Z" fill="white"/>
<path d="M207.308 181.498H200.569C200.24 181.498 199.974 181.809 199.974 182.193C199.974 182.576 200.24 182.887 200.569 182.887H207.308C207.636 182.887 207.903 182.576 207.903 182.193C207.903 181.809 207.636 181.498 207.308 181.498Z" fill="white"/>
<path d="M201.587 178.249H200.502C200.174 178.249 199.907 178.56 199.907 178.943C199.907 179.327 200.174 179.638 200.502 179.638H201.587C201.915 179.638 202.182 179.327 202.182 178.943C202.182 178.56 201.915 178.249 201.587 178.249Z" fill="white"/>
<path d="M213.987 178.249H212.903C212.574 178.249 212.308 178.56 212.308 178.943C212.308 179.327 212.574 179.638 212.903 179.638H213.987C214.316 179.638 214.582 179.327 214.582 178.943C214.582 178.56 214.316 178.249 213.987 178.249Z" fill="white"/>
<path d="M217.501 178.249H216.416C216.088 178.249 215.821 178.56 215.821 178.943C215.821 179.327 216.088 179.638 216.416 179.638H217.501C217.829 179.638 218.096 179.327 218.096 178.943C218.096 178.56 217.829 178.249 217.501 178.249Z" fill="white"/>
<path d="M210.614 178.365H203.875C203.547 178.365 203.28 178.676 203.28 179.059C203.28 179.443 203.547 179.753 203.875 179.753H210.614C210.943 179.753 211.209 179.443 211.209 179.059C211.209 178.676 210.943 178.365 210.614 178.365Z" fill="white"/>
<path d="M204.893 175.116H203.809C203.48 175.116 203.214 175.427 203.214 175.81C203.214 176.193 203.48 176.504 203.809 176.504H204.893C205.222 176.504 205.489 176.193 205.489 175.81C205.489 175.427 205.222 175.116 204.893 175.116Z" fill="white"/>
<path d="M217.294 175.116H216.209C215.881 175.116 215.614 175.427 215.614 175.81C215.614 176.193 215.881 176.504 216.209 176.504H217.294C217.622 176.504 217.889 176.193 217.889 175.81C217.889 175.427 217.622 175.116 217.294 175.116Z" fill="white"/>
<path d="M220.807 175.116H219.723C219.394 175.116 219.128 175.427 219.128 175.81C219.128 176.193 219.394 176.504 219.723 176.504H220.807C221.136 176.504 221.403 176.193 221.403 175.81C221.403 175.427 221.136 175.116 220.807 175.116Z" fill="white"/>
<path d="M213.921 175.232H207.182C206.853 175.232 206.587 175.542 206.587 175.926C206.587 176.309 206.853 176.62 207.182 176.62H213.921C214.25 176.62 214.516 176.309 214.516 175.926C214.516 175.542 214.25 175.232 213.921 175.232Z" fill="white"/>
<path d="M208.201 171.982H207.117C206.788 171.982 206.521 172.293 206.521 172.676C206.521 173.06 206.788 173.371 207.117 173.371H208.201C208.53 173.371 208.796 173.06 208.796 172.676C208.796 172.293 208.53 171.982 208.201 171.982Z" fill="white"/>
<path d="M220.601 171.982H219.517C219.188 171.982 218.922 172.293 218.922 172.676C218.922 173.06 219.188 173.371 219.517 173.371H220.601C220.93 173.371 221.197 173.06 221.197 172.676C221.197 172.293 220.93 171.982 220.601 171.982Z" fill="white"/>
<path d="M224.114 171.982H223.03C222.701 171.982 222.435 172.293 222.435 172.676C222.435 173.06 222.701 173.371 223.03 173.371H224.114C224.443 173.371 224.709 173.06 224.709 172.676C224.709 172.293 224.443 171.982 224.114 171.982Z" fill="white"/>
<path d="M217.228 172.098H210.489C210.16 172.098 209.894 172.409 209.894 172.792C209.894 173.176 210.16 173.486 210.489 173.486H217.228C217.556 173.486 217.823 173.176 217.823 172.792C217.823 172.409 217.556 172.098 217.228 172.098Z" fill="white"/>
<path d="M192.516 218.106L187.426 208.723L203.402 193.869L209.997 185.349C210.853 184.242 211.944 183.416 213.16 182.955C214.376 182.494 215.674 182.413 216.926 182.72C218.177 183.027 219.337 183.712 220.29 184.706C221.243 185.7 221.956 186.969 222.357 188.385C222.951 190.483 222.824 192.769 222.001 194.759C221.177 196.75 219.724 198.289 217.946 199.053L207.518 203.533L192.516 218.106Z" fill="#FFB6B6"/>
<path d="M73.0879 150.07V195.676H100.483V150.07C100.483 149.742 100.394 149.422 100.227 149.158C100.06 148.894 99.8252 148.699 99.5565 148.603C99.4298 148.554 99.2971 148.53 99.1637 148.531H74.4109C74.2374 148.531 74.0655 148.571 73.9051 148.648C73.7447 148.725 73.5989 148.838 73.476 148.981C73.3531 149.124 73.2556 149.294 73.189 149.48C73.1224 149.667 73.0881 149.868 73.0879 150.07V150.07ZM83.779 165.74C83.7862 164.841 84.0974 163.982 84.6451 163.349C85.1928 162.716 85.9325 162.361 86.7035 162.361C87.4744 162.361 88.2142 162.716 88.7618 163.349C89.3095 163.982 89.6207 164.841 89.6279 165.74V171.032C89.6239 171.934 89.3141 172.797 88.7661 173.433C88.2181 174.068 87.4765 174.425 86.7035 174.425C85.9304 174.425 85.1888 174.068 84.6408 173.433C84.0928 172.797 83.783 171.934 83.779 171.032V165.74Z" fill="#2F2E41"/>
<path d="M73.0039 194.218V198.615C73.0045 198.843 73.0821 199.062 73.2199 199.223C73.3577 199.385 73.5445 199.476 73.7398 199.478H99.8309C100.026 199.477 100.214 199.386 100.351 199.224C100.489 199.062 100.567 198.844 100.567 198.615V194.218H73.0039Z" fill="#3F3D56"/>
<path d="M29.9912 81.3585V164.629C29.9919 165.69 30.3537 166.707 30.9971 167.458C31.6405 168.208 32.5129 168.63 33.4227 168.631H139.228C140.138 168.63 141.011 168.208 141.654 167.458C142.297 166.707 142.659 165.69 142.66 164.629V81.3585C142.658 80.2983 142.295 79.2823 141.652 78.533C141.009 77.7837 140.137 77.3622 139.228 77.3609H33.4227C32.5137 77.3623 31.6421 77.7837 30.9989 78.533C30.3557 79.2823 29.9934 80.2983 29.9912 81.3585Z" fill="#3F3D56"/>
<path d="M32.4736 82.3946V163.602C32.4745 164.169 32.668 164.712 33.0117 165.113C33.3555 165.514 33.8215 165.739 34.3076 165.74H138.348C138.834 165.739 139.3 165.514 139.644 165.113C139.988 164.712 140.181 164.169 140.182 163.602V82.3946C140.182 81.8269 139.989 81.2825 139.645 80.8807C139.301 80.4788 138.835 80.2525 138.348 80.2513H34.3076C33.8209 80.2525 33.3544 80.4788 33.0106 80.8807C32.6668 81.2825 32.4737 81.8269 32.4736 82.3946Z" fill="white"/>
<path d="M51.7815 199.18C51.8874 199.335 52.022 199.46 52.1752 199.545C52.3284 199.631 52.4962 199.675 52.6661 199.674H114.563C114.733 199.674 114.9 199.629 115.052 199.544C115.205 199.459 115.34 199.336 115.446 199.182C115.553 199.029 115.629 198.85 115.669 198.658C115.709 198.466 115.711 198.266 115.677 198.073L114.716 192.75C114.676 192.533 114.59 192.331 114.466 192.163C114.343 191.994 114.184 191.864 114.007 191.785C113.878 191.726 113.741 191.696 113.602 191.696H53.6231C53.4848 191.696 53.3477 191.726 53.2189 191.785C53.0411 191.864 52.883 191.994 52.7591 192.163C52.6353 192.331 52.5495 192.533 52.5097 192.75L51.5489 198.073C51.5147 198.266 51.5178 198.466 51.5581 198.657C51.5983 198.849 51.6746 199.027 51.7815 199.18Z" fill="#2F2E41"/>
<path d="M134.972 91.4379H37.6218C37.5206 91.4353 37.4243 91.3866 37.3536 91.3022C37.2828 91.2178 37.2432 91.1044 37.2432 90.9864C37.2432 90.8683 37.2828 90.755 37.3536 90.6706C37.4243 90.5862 37.5206 90.5375 37.6218 90.5349H134.972C135.073 90.5375 135.169 90.5862 135.24 90.6706C135.311 90.755 135.351 90.8683 135.351 90.9864C135.351 91.1044 135.311 91.2178 135.24 91.3022C135.169 91.3866 135.073 91.4353 134.972 91.4379V91.4379Z" fill="#3F3D56"/>
<path d="M44.2483 88.2296C45.5013 88.2296 46.5171 87.0185 46.5171 85.5246C46.5171 84.0307 45.5013 82.8196 44.2483 82.8196C42.9953 82.8196 41.9795 84.0307 41.9795 85.5246C41.9795 87.0185 42.9953 88.2296 44.2483 88.2296Z" fill="#3F3D56"/>
<path d="M52.0862 88.2296C53.3392 88.2296 54.355 87.0185 54.355 85.5246C54.355 84.0307 53.3392 82.8196 52.0862 82.8196C50.8332 82.8196 49.8174 84.0307 49.8174 85.5246C49.8174 87.0185 50.8332 88.2296 52.0862 88.2296Z" fill="#3F3D56"/>
<path d="M59.9231 88.2296C61.1761 88.2296 62.1919 87.0185 62.1919 85.5246C62.1919 84.0307 61.1761 82.8196 59.9231 82.8196C58.6701 82.8196 57.6543 84.0307 57.6543 85.5246C57.6543 87.0185 58.6701 88.2296 59.9231 88.2296Z" fill="#3F3D56"/>
<path d="M130.252 83.4886H124.685C124.575 83.4915 124.47 83.5446 124.393 83.6364C124.317 83.7283 124.273 83.8515 124.273 83.9799C124.273 84.1083 124.317 84.2316 124.393 84.3234C124.47 84.4152 124.575 84.4683 124.685 84.4713H130.252C130.362 84.4695 130.468 84.4169 130.546 84.3249C130.624 84.233 130.667 84.109 130.667 83.9799C130.667 83.8508 130.624 83.7269 130.546 83.6349C130.468 83.5429 130.362 83.4904 130.252 83.4886Z" fill="#3F3D56"/>
<path d="M130.252 85.334H124.686C124.575 85.3368 124.471 85.3898 124.394 85.4817C124.317 85.5735 124.273 85.6969 124.273 85.8253C124.273 85.9538 124.317 86.0772 124.394 86.169C124.471 86.2608 124.575 86.3138 124.686 86.3167H130.252C130.363 86.3151 130.469 86.2627 130.547 86.1707C130.625 86.0787 130.669 85.9546 130.669 85.8253C130.669 85.696 130.625 85.5719 130.547 85.4799C130.469 85.388 130.363 85.3355 130.252 85.334V85.334Z" fill="#3F3D56"/>
<path d="M130.252 87.1793H124.685C124.575 87.1823 124.47 87.2354 124.393 87.3272C124.317 87.4191 124.273 87.5423 124.273 87.6707C124.273 87.7991 124.317 87.9224 124.393 88.0142C124.47 88.106 124.575 88.1591 124.685 88.1621H130.252C130.362 88.1602 130.468 88.1077 130.546 88.0157C130.624 87.9238 130.667 87.7998 130.667 87.6707C130.667 87.5416 130.624 87.4176 130.546 87.3257C130.468 87.2337 130.362 87.1812 130.252 87.1793V87.1793Z" fill="#3F3D56"/>
<path d="M264.456 196.148C264.624 196.718 264.942 197.212 265.366 197.558C265.79 197.904 266.296 198.084 266.813 198.074L276.914 197.77C277.435 197.759 277.939 197.55 278.35 197.177C278.761 196.804 279.057 196.286 279.195 195.7L280.624 177.874C281.131 178.142 281.683 178.274 282.24 178.261C282.723 178.247 283.2 178.122 283.642 177.893C284.084 177.664 284.483 177.336 284.817 176.927C285.15 176.518 285.411 176.037 285.585 175.51C285.759 174.984 285.842 174.422 285.83 173.858C285.818 173.294 285.71 172.739 285.514 172.223C285.318 171.707 285.036 171.242 284.686 170.853C284.335 170.464 283.923 170.16 283.471 169.957C283.02 169.754 282.538 169.657 282.055 169.671C281.832 169.67 281.61 169.697 281.393 169.752C281.156 169.453 280.869 169.216 280.549 169.054C280.229 168.893 279.883 168.812 279.535 168.816L263.997 169.284C263.868 169.29 263.74 169.308 263.614 169.34C263.273 169.414 262.95 169.572 262.666 169.804C262.382 170.036 262.144 170.336 261.968 170.685C261.792 171.033 261.682 171.421 261.645 171.823C261.609 172.225 261.646 172.631 261.756 173.015L264.456 196.148ZM280.917 176.663L281.934 172.415C282.05 171.925 282.053 171.407 281.942 170.915C281.991 170.915 282.035 170.887 282.084 170.887C282.782 170.87 283.456 171.177 283.96 171.739C284.464 172.302 284.756 173.074 284.773 173.888C284.789 174.701 284.528 175.489 284.047 176.078C283.566 176.667 282.905 177.01 282.208 177.031C281.757 177.048 281.31 176.921 280.917 176.663Z" fill="#2F2E41"/>
<path d="M263.613 169.34C263.944 171.547 267.666 173.099 272.141 172.829C276.256 172.608 279.621 170.923 280.237 168.926C280.009 168.847 279.772 168.81 279.534 168.816L263.997 169.284C263.868 169.29 263.739 169.308 263.613 169.34V169.34Z" fill="#3F3D56"/>
<path d="M272.961 186.352C272.982 186.346 273.001 186.336 273.019 186.323L275.212 184.648C275.239 184.628 275.261 184.6 275.276 184.568C275.291 184.536 275.299 184.499 275.299 184.462C275.299 184.425 275.291 184.389 275.276 184.357C275.261 184.324 275.239 184.297 275.212 184.276L272.932 182.535C272.911 182.519 272.888 182.507 272.863 182.502C272.839 182.496 272.813 182.496 272.789 182.502C272.764 182.508 272.741 182.52 272.72 182.536C272.699 182.553 272.682 182.574 272.668 182.598C272.654 182.623 272.645 182.65 272.64 182.679C272.635 182.708 272.636 182.737 272.641 182.766C272.646 182.794 272.656 182.822 272.67 182.846C272.684 182.87 272.702 182.89 272.723 182.906L274.76 184.462L272.81 185.951C272.772 185.979 272.744 186.023 272.732 186.073C272.719 186.124 272.722 186.178 272.74 186.226C272.758 186.274 272.79 186.313 272.831 186.336C272.871 186.36 272.917 186.365 272.961 186.352H272.961Z" fill="#00AEFF"/>
<path d="M269.496 186.539C269.533 186.528 269.566 186.504 269.592 186.471C269.617 186.438 269.633 186.397 269.638 186.353C269.644 186.309 269.637 186.265 269.621 186.225C269.604 186.185 269.577 186.152 269.544 186.13L267.522 184.778L269.477 183.085C269.497 183.068 269.514 183.046 269.527 183.021C269.539 182.996 269.548 182.968 269.552 182.939C269.555 182.91 269.554 182.881 269.548 182.853C269.542 182.824 269.531 182.798 269.516 182.774C269.501 182.751 269.482 182.731 269.461 182.716C269.439 182.701 269.416 182.691 269.391 182.687C269.366 182.683 269.341 182.684 269.317 182.691C269.292 182.699 269.27 182.711 269.249 182.729L267.061 184.624C267.036 184.646 267.016 184.675 267.002 184.708C266.989 184.742 266.983 184.779 266.985 184.816C266.987 184.852 266.996 184.888 267.013 184.919C267.03 184.951 267.053 184.977 267.08 184.995L269.355 186.516C269.398 186.545 269.448 186.553 269.496 186.539V186.539Z" fill="#00AEFF"/>
<path d="M272.743 187.82C272.762 187.814 272.779 187.806 272.796 187.794C272.817 187.779 272.836 187.759 272.85 187.735C272.865 187.712 272.876 187.685 272.882 187.657C272.888 187.628 272.889 187.599 272.885 187.57C272.881 187.541 272.873 187.513 272.859 187.488L269.75 181.526C269.724 181.476 269.681 181.44 269.632 181.426C269.583 181.412 269.531 181.421 269.488 181.452C269.445 181.483 269.414 181.532 269.402 181.589C269.39 181.647 269.398 181.707 269.424 181.757L272.534 187.72C272.555 187.76 272.587 187.792 272.624 187.81C272.662 187.828 272.704 187.831 272.743 187.82Z" fill="#00AEFF"/>
<path d="M97.9287 115.984H81.0795C80.3922 115.984 79.835 116.634 79.835 117.435V119.355C79.835 120.157 80.3922 120.807 81.0795 120.807H97.9287C98.616 120.807 99.1732 120.157 99.1732 119.355V117.435C99.1732 116.634 98.616 115.984 97.9287 115.984Z" fill="#00AEFF"/>
<path d="M107.75 125.63H71.2582C70.5709 125.63 70.0137 126.279 70.0137 127.081V129.001C70.0137 129.803 70.5709 130.452 71.2582 130.452H107.75C108.437 130.452 108.994 129.803 108.994 129.001V127.081C108.994 126.279 108.437 125.63 107.75 125.63Z" fill="#E6E6E6"/>
<path d="M107.75 135.275H71.2582C70.5709 135.275 70.0137 135.925 70.0137 136.727V138.647C70.0137 139.448 70.5709 140.098 71.2582 140.098H107.75C108.437 140.098 108.994 139.448 108.994 138.647V136.727C108.994 135.925 108.437 135.275 107.75 135.275Z" fill="#E6E6E6"/>
<path d="M110.843 167.575L110.925 167.879L110.93 167.889L113.418 176.711L116.28 186.877L121.664 205.98L121.717 208.948V208.958L122.117 232.83L121.008 236.067L122.256 241.373C122.256 241.373 121.682 233.352 118.602 237.958C116.858 240.576 114.818 243.254 113.144 245.765C115.584 246.917 118.063 247.958 120.581 248.89C121.125 249.093 121.673 249.286 122.221 249.478C122.339 249.519 122.456 249.56 122.573 249.6C130.922 252.479 139.552 254.097 148.253 254.414C148.705 254.429 149.149 254.44 149.58 254.45C149.732 254.455 149.88 254.46 150.028 254.46C150.515 254.465 150.998 254.47 151.485 254.47C152.468 254.47 153.446 254.453 154.421 254.419C161.632 254.182 168.801 253.051 175.807 251.046C175.76 247.673 175.629 243.731 175.442 239.521C175.355 237.456 173.402 235.219 173.285 233.058C173.202 231.435 174.955 229.908 174.864 228.259C174.272 218.109 173.533 222.005 172.985 214.817C172.928 214.112 172.876 213.437 172.828 212.793C172.476 208.177 172.232 205.291 172.232 205.291L174.572 188.089L178.248 161.082L177.965 160.539L177.647 160.356L158.261 149.166L157.209 146.021C156.902 145.115 156.37 144.336 155.681 143.786C154.992 143.235 154.177 142.938 153.342 142.931L140.572 142.871C139.909 142.867 139.255 143.048 138.664 143.398C138.074 143.748 137.563 144.258 137.175 144.884L133.717 150.47L110.843 167.575Z" fill="#3F3D56"/>
<path d="M124.609 201.729L121.717 208.948L119.742 213.879L116.345 234.621L114.644 236.726L113.187 229.274L97.9369 233.223C97.4367 229.981 97.803 233.333 97.4941 229.777C97.5811 229.675 97.6725 229.574 97.7638 229.472C98.0074 229.208 98.2118 228.96 98.2075 228.721C98.0335 216.456 98.5554 195.581 102.914 182.935C103.596 180.87 104.496 178.912 105.593 177.106C105.68 176.969 105.763 176.832 105.845 176.696C107.855 173.413 109.125 170.182 110.926 167.884V167.879C110.937 167.869 110.947 167.857 110.956 167.844C110.963 167.84 110.968 167.835 110.973 167.828L123.343 160.179L123.874 177.568L124.252 190.067L124.609 201.729Z" fill="#3F3D56"/>
<path d="M169.213 203.78L172.826 212.796L174.087 215.935L177.483 236.676L179.178 238.776L180.639 231.325L181.325 231.161L193.701 228.172L197.308 241.533C198.121 239.953 198.441 238.094 198.214 236.271C197.988 234.447 197.228 232.771 196.064 231.525C195.818 231.265 195.613 231.012 195.619 230.773C195.824 216.346 195.067 190.003 188.234 179.161C186.064 175.72 184.762 172.293 182.867 169.899C182.861 169.892 182.861 169.885 182.856 169.885L178.245 161.081L177.964 160.541L177.647 160.356L169.213 203.78Z" fill="#3F3D56"/>
<path d="M147.326 138.632C156.709 138.632 164.315 129.761 164.315 118.818C164.315 107.875 156.709 99.004 147.326 99.004C137.943 99.004 130.337 107.875 130.337 118.818C130.337 129.761 137.943 138.632 147.326 138.632Z" fill="#FFB6B6"/>
<path d="M170.289 104.978C170.157 104.814 169.999 104.682 169.822 104.592C169.646 104.501 169.456 104.452 169.263 104.449L169.519 103.622C169.602 103.361 169.625 103.079 169.584 102.805C169.543 102.531 169.441 102.275 169.287 102.062C169.134 101.85 168.934 101.689 168.71 101.595C168.485 101.502 168.243 101.48 168.009 101.532L167.079 101.741L167.166 101.016C167.2 100.746 167.173 100.47 167.087 100.216C167.002 99.9625 166.861 99.7388 166.679 99.5674C166.497 99.396 166.28 99.2828 166.05 99.239C165.819 99.1951 165.582 99.2221 165.363 99.3172C165.163 99.4088 164.949 99.4471 164.735 99.4294C164.521 99.4117 164.314 99.3384 164.127 99.215C163.94 99.0953 163.778 98.9294 163.652 98.7289C163.525 98.5285 163.438 98.2983 163.395 98.0543L163.071 96.2312L163.037 96.1333C161.459 93.0651 158.424 90.8328 154.71 90.0146C151.404 89.2808 148.015 89.6544 144.747 90.0057C143.451 90.148 141.986 90.308 140.766 91.1796C139.729 91.9267 138.852 93.4208 139.032 94.9283C135.81 93.7765 132.355 96.0755 130.643 98.9748C128.615 102.426 128.283 106.748 128.23 110.127C128.085 118.123 129.499 124.664 132.424 129.573C132.637 129.929 132.691 130.671 133.114 130.92L133.026 130.756C133.499 131.032 133.98 131.476 133.8 131.952C133.286 133.322 136.706 136.35 139.115 137.35C143.512 139.178 149.357 139.022 153.467 138.364L153.612 137.23C155.095 136.995 156.14 136.546 156.433 135.843C156.952 135.327 157.394 134.865 157.779 134.438L157.783 134.433C157.791 134.424 157.806 134.411 157.813 134.402C159.67 132.326 160.101 131.143 160.296 129.342C160.482 127.576 160.151 125.784 159.811 124.17C166.957 125.46 156.998 115.294 163.655 113.329C163.731 113.302 163.809 113.279 163.887 113.262C164.082 113.209 164.276 113.156 164.463 113.093C165.364 112.808 166.226 112.379 167.025 111.817C168.886 110.496 169.5 108.744 170.461 106.77C170.599 106.489 170.657 106.164 170.626 105.841C170.596 105.519 170.477 105.217 170.289 104.978V104.978Z" fill="#2F2E41"/>
<path d="M207.414 205.19C207.41 205.969 207.402 207.058 207.372 208.405C207.368 208.592 207.364 208.783 207.36 208.979C207.311 211.456 207.261 213.533 207.181 215.84C207.177 216.001 207.174 216.156 207.166 216.316C207.059 219.536 206.891 223.284 206.602 229.221C206.064 240.187 205.126 230.728 204.184 234.575C204.139 234.766 204.089 234.993 204.043 235.26C203.901 236.228 203.66 237.172 203.326 238.074C202.827 238.421 202.312 238.755 201.805 239.088C200.36 240.026 198.892 240.929 197.413 241.787C196.582 242.268 195.747 242.739 194.908 243.193C194.774 243.264 194.645 243.335 194.515 243.402C190.22 245.719 185.793 247.689 181.266 249.298C180.381 249.609 179.5 249.912 178.608 250.192C177.678 250.494 176.747 250.779 175.806 251.046C168.8 253.051 161.631 254.183 154.42 254.421C153.447 254.456 152.467 254.47 151.484 254.47C150.996 254.47 150.515 254.465 150.027 254.461C149.878 254.461 149.73 254.456 149.581 254.452C149.15 254.438 148.704 254.43 148.254 254.416C139.553 254.1 130.923 252.481 122.575 249.6L122.22 249.48C121.671 249.285 121.126 249.093 120.581 248.889C118.064 247.959 115.585 246.919 113.142 245.767C111.277 244.891 109.435 243.951 107.613 242.948C107.597 242.943 107.581 242.934 107.568 242.921C107.186 242.717 106.801 242.503 106.42 242.285C106.37 242.254 106.317 242.223 106.264 242.192C104.841 241.383 103.435 240.535 102.043 239.648C100.872 236.513 99.2252 235.913 98.2033 233.156C97.9059 232.337 97.691 231.481 97.5628 230.604C97.5628 230.595 97.559 230.586 97.559 230.573C97.6657 232.227 97.1052 227.638 97.5552 230.555C97.5513 230.501 97.5475 230.444 97.5437 230.377C97.5323 230.217 97.5171 230.021 97.4942 229.777C96.1864 214.884 96.2703 197.853 95.7021 183.819C95.664 182.912 95.6246 182.043 95.584 181.213C95.5725 180.938 95.5573 180.666 95.542 180.4C95.5687 180.32 95.5992 180.235 95.6335 180.155C95.6408 180.132 95.6497 180.11 95.6602 180.088C95.6714 180.061 95.6842 180.034 95.6983 180.008C95.7059 179.995 95.7174 179.977 95.725 179.964C95.7306 179.949 95.7369 179.934 95.7441 179.919C95.7784 179.857 95.8165 179.79 95.8585 179.728C95.8775 179.702 95.8928 179.679 95.9118 179.657C95.925 179.634 95.9404 179.613 95.9576 179.595C95.9693 179.573 95.9834 179.554 95.9995 179.537C96.0148 179.519 96.03 179.497 96.0491 179.475C96.0572 179.461 96.0676 179.449 96.0796 179.439C96.1098 179.399 96.1429 179.362 96.1787 179.328C96.3148 179.182 96.4601 179.048 96.6134 178.928C96.6668 178.888 96.724 178.848 96.7773 178.803C97.1616 178.535 97.5662 178.309 97.986 178.127C98.1309 178.065 98.2758 178.007 98.4321 177.945C98.4893 177.927 98.5427 177.905 98.5999 177.883C98.6837 177.852 98.7676 177.821 98.8553 177.798C99.29 177.647 99.759 177.518 100.266 177.398C100.327 177.385 100.392 177.371 100.457 177.354C100.548 177.331 100.644 177.314 100.739 177.296C100.868 177.269 101.002 177.242 101.135 177.216C102.268 177.007 103.553 176.851 104.971 176.749C105.105 176.74 105.238 176.731 105.371 176.722C105.528 176.713 105.684 176.704 105.844 176.696C105.978 176.687 106.115 176.682 106.252 176.678C106.386 176.669 106.523 176.664 106.664 176.66C107.049 176.647 107.446 176.633 107.85 176.624C109.001 176.598 110.214 176.607 111.487 176.638C112.078 176.656 112.681 176.673 113.298 176.704C113.34 176.704 113.378 176.709 113.416 176.709C113.954 176.731 114.495 176.758 115.052 176.793C115.441 176.816 115.834 176.838 116.226 176.865C116.596 176.891 116.97 176.918 117.347 176.949C117.641 176.967 117.935 176.993 118.232 177.016C118.484 177.038 118.735 177.06 118.987 177.078L119.33 177.105C119.517 177.122 119.704 177.136 119.894 177.158C120.314 177.198 120.733 177.238 121.16 177.278C121.584 177.323 122.014 177.367 122.445 177.411C122.876 177.456 123.311 177.505 123.745 177.554C123.791 177.558 123.833 177.563 123.875 177.567C124.272 177.616 124.668 177.66 125.068 177.709C125.16 177.718 125.255 177.727 125.347 177.741C125.728 177.785 126.118 177.838 126.503 177.885C126.621 177.9 126.739 177.915 126.857 177.93C127.159 177.968 127.456 178.001 127.76 178.043C128.161 178.096 128.569 178.145 128.965 178.207C129.274 178.247 129.583 178.287 129.892 178.332C130.376 178.399 130.868 178.47 131.36 178.545C131.546 178.572 131.733 178.599 131.92 178.63C133.323 178.834 134.742 179.061 136.183 179.297C138.367 179.657 140.587 180.048 142.821 180.471C145.059 180.893 147.31 181.339 149.573 181.809C150.145 181.929 150.717 182.049 151.293 182.174C151.552 182.232 151.811 182.29 152.071 182.347C152.513 182.441 152.955 182.539 153.398 182.636C153.84 182.734 154.282 182.832 154.724 182.934C155.251 183.054 155.781 183.174 156.307 183.295C159.773 184.095 163.219 184.949 166.582 185.843C167.135 185.989 167.688 186.14 168.237 186.287C169.335 186.585 170.423 186.888 171.501 187.194C171.798 187.274 172.092 187.359 172.385 187.443C173.118 187.657 173.85 187.87 174.57 188.088L174.696 188.128C175.226 188.279 175.745 188.435 176.263 188.595C177.487 188.969 178.691 189.347 179.874 189.729C180.659 189.982 181.436 190.239 182.203 190.498C183.351 190.885 184.476 191.276 185.57 191.672C185.841 191.77 186.112 191.868 186.378 191.961C187.179 192.25 187.968 192.544 188.735 192.837C189.345 193.069 189.94 193.304 190.527 193.54C191.114 193.776 191.69 194.011 192.254 194.247C192.616 194.398 192.975 194.558 193.333 194.709C193.848 194.932 194.355 195.154 194.851 195.376C195.003 195.443 195.152 195.514 195.3 195.581C195.396 195.63 195.487 195.67 195.579 195.714C195.758 195.799 195.941 195.879 196.116 195.963C196.296 196.043 196.471 196.128 196.646 196.217C196.818 196.297 196.993 196.381 197.161 196.466C197.333 196.546 197.5 196.63 197.668 196.719C197.809 196.786 197.947 196.857 198.08 196.928C198.351 197.066 198.621 197.204 198.885 197.346C199.014 197.417 199.144 197.484 199.273 197.555L199.571 197.715C199.613 197.742 199.655 197.764 199.697 197.787C199.792 197.84 199.891 197.898 199.986 197.951C200.208 198.071 200.425 198.2 200.638 198.32C200.924 198.489 201.203 198.658 201.47 198.823C201.74 198.992 202.003 199.161 202.255 199.325C202.297 199.352 202.335 199.378 202.377 199.405C202.434 199.441 202.491 199.481 202.549 199.516C202.743 199.645 202.93 199.779 203.117 199.908C203.483 200.17 203.83 200.428 204.154 200.686C204.226 200.744 204.295 200.801 204.367 200.855C204.608 201.055 204.836 201.251 205.05 201.451C205.05 201.455 205.05 201.455 205.054 201.455C205.126 201.517 205.195 201.584 205.263 201.646C205.321 201.709 205.382 201.762 205.439 201.824C205.637 202.024 205.82 202.215 205.988 202.411C206.044 202.472 206.097 202.535 206.148 202.602C206.17 202.624 206.191 202.648 206.209 202.674C206.285 202.762 206.354 202.851 206.419 202.94C206.429 202.953 206.438 202.966 206.445 202.98C206.537 203.105 206.621 203.229 206.701 203.354C206.739 203.416 206.781 203.478 206.815 203.541C206.861 203.616 206.907 203.696 206.945 203.772C206.979 203.834 207.01 203.901 207.04 203.963C207.121 204.123 207.19 204.291 207.246 204.466C207.289 204.584 207.323 204.706 207.349 204.83C207.378 204.948 207.4 205.069 207.414 205.19V205.19Z" fill="#2F2E41"/>
<path opacity="0.2" d="M207.415 205.19C207.411 205.969 207.403 207.058 207.373 208.405C207.369 208.592 207.361 208.783 207.358 208.979C207.319 210.869 207.262 213.204 207.182 215.84C207.178 216.001 207.175 216.156 207.167 216.316C207.06 219.536 206.892 223.284 206.603 229.221C206.065 240.187 205.127 230.728 204.185 234.575C201.57 232.698 198.702 230.733 195.637 228.714C195.084 228.349 194.526 227.983 193.963 227.616C187.832 223.627 180.984 219.447 173.835 215.307C173.553 215.142 173.267 214.978 172.985 214.818C156.609 205.377 138.734 196.195 124.253 190.067C121.459 188.884 118.79 187.817 116.281 186.879C110.996 184.909 106.428 183.53 102.913 182.934C99.2527 182.312 96.7249 182.534 95.703 183.819C95.6649 182.912 95.6255 182.043 95.5848 181.213C95.5695 180.938 95.5543 180.666 95.5391 180.4C95.5626 180.326 95.5932 180.257 95.6228 180.186C95.627 180.176 95.63 180.165 95.6344 180.155C95.6417 180.132 95.6506 180.11 95.6611 180.088C95.6723 180.061 95.6851 180.034 95.6992 180.008C95.7116 179.977 95.7269 179.947 95.745 179.919C95.7793 179.857 95.8174 179.79 95.8593 179.728C95.8902 179.682 95.9233 179.637 95.9585 179.595C95.9702 179.573 95.9843 179.554 96.0004 179.537C96.0157 179.519 96.0309 179.497 96.05 179.475C96.0581 179.461 96.0685 179.449 96.0805 179.439C96.1106 179.399 96.1438 179.362 96.1796 179.328C96.3157 179.182 96.461 179.048 96.6143 178.928C96.6676 178.888 96.7248 178.848 96.7782 178.803C97.1625 178.535 97.5671 178.309 97.9869 178.127C98.1318 178.065 98.2767 178.007 98.433 177.945C98.4902 177.927 98.5436 177.905 98.6008 177.883C98.6846 177.852 98.7685 177.821 98.8562 177.798C99.2909 177.647 99.7598 177.518 100.267 177.398C100.419 177.363 100.58 177.327 100.74 177.296C100.869 177.269 101.003 177.242 101.136 177.216C102.269 177.007 103.554 176.851 104.972 176.749C105.105 176.74 105.239 176.731 105.372 176.722C105.529 176.713 105.685 176.704 105.845 176.695C105.979 176.687 106.116 176.682 106.253 176.678C106.387 176.669 106.524 176.664 106.665 176.66C107.05 176.647 107.446 176.633 107.851 176.624C109.002 176.602 110.215 176.611 111.488 176.642C112.079 176.655 112.681 176.678 113.299 176.709C113.337 176.709 113.379 176.713 113.417 176.713C113.955 176.731 114.5 176.762 115.053 176.793C115.442 176.816 115.835 176.838 116.227 176.864C116.597 176.891 116.971 176.918 117.348 176.949C117.642 176.967 117.936 176.993 118.233 177.016C118.485 177.038 118.736 177.06 118.988 177.078C119.289 177.105 119.59 177.131 119.895 177.158C120.315 177.198 120.734 177.238 121.161 177.278C121.584 177.322 122.015 177.367 122.446 177.411C122.877 177.456 123.312 177.505 123.746 177.554C123.792 177.558 123.834 177.563 123.876 177.567C124.272 177.616 124.669 177.66 125.069 177.709C127.288 177.972 129.572 178.279 131.921 178.63C133.324 178.839 134.745 179.063 136.184 179.301C138.368 179.661 140.587 180.053 142.822 180.471C145.06 180.893 147.311 181.339 149.574 181.809C150.146 181.929 150.718 182.049 151.294 182.174C151.995 182.325 152.697 182.479 153.399 182.636C153.841 182.734 154.283 182.832 154.725 182.934C155.252 183.054 155.782 183.174 156.308 183.295C159.774 184.095 163.22 184.949 166.583 185.843C167.136 185.989 167.689 186.14 168.238 186.287C169.336 186.585 170.424 186.887 171.502 187.194C171.799 187.279 172.093 187.363 172.386 187.448C173.122 187.661 173.85 187.875 174.571 188.088V188.093C174.613 188.101 174.655 188.115 174.697 188.128C175.223 188.284 175.745 188.439 176.264 188.6C177.488 188.973 178.691 189.35 179.875 189.729C180.66 189.987 181.438 190.24 182.204 190.498C183.352 190.89 184.477 191.281 185.571 191.672C185.842 191.77 186.113 191.868 186.379 191.961C187.18 192.255 187.966 192.547 188.736 192.837C189.346 193.069 189.941 193.304 190.528 193.54C191.115 193.776 191.691 194.011 192.255 194.247C192.621 194.398 192.979 194.554 193.334 194.705C193.853 194.927 194.356 195.15 194.851 195.376C195.004 195.443 195.153 195.514 195.301 195.581C195.58 195.705 195.85 195.834 196.117 195.963C196.297 196.043 196.472 196.128 196.647 196.217C196.819 196.297 196.994 196.381 197.162 196.466C197.334 196.546 197.501 196.63 197.669 196.719C197.81 196.786 197.947 196.857 198.081 196.928C198.352 197.066 198.622 197.204 198.885 197.346C199.015 197.417 199.145 197.484 199.274 197.555L199.572 197.715C199.614 197.742 199.656 197.764 199.698 197.787C200.022 197.964 200.334 198.142 200.639 198.32C200.925 198.489 201.204 198.658 201.471 198.823C201.787 199.018 202.088 199.21 202.378 199.405C202.435 199.441 202.492 199.481 202.55 199.516C202.744 199.645 202.931 199.779 203.118 199.908C203.484 200.17 203.831 200.428 204.155 200.686C204.475 200.944 204.772 201.197 205.051 201.451C205.051 201.455 205.051 201.455 205.055 201.455C205.188 201.58 205.318 201.704 205.44 201.824C205.638 202.024 205.821 202.215 205.989 202.411C206.045 202.472 206.098 202.535 206.149 202.602C206.171 202.624 206.191 202.648 206.21 202.674C206.29 202.776 206.37 202.878 206.446 202.98C206.538 203.105 206.622 203.229 206.702 203.354C206.74 203.416 206.782 203.478 206.816 203.541C206.862 203.616 206.908 203.696 206.946 203.772C206.98 203.834 207.011 203.901 207.041 203.963C207.122 204.123 207.191 204.291 207.247 204.466C207.289 204.584 207.323 204.706 207.35 204.83C207.379 204.948 207.4 205.069 207.415 205.19V205.19Z" fill="black"/>
</g>
<defs>
<clipPath id="clip0_209_59">
<rect width="300" height="254.47" fill="white"/>
</clipPath>
</defs>
</svg>
