<svg width="32" height="32" viewBox="0 0 32 32" fill="none" xmlns="http://www.w3.org/2000/svg">
<path d="M22.667 2.66666H9.33366C5.65176 2.66666 2.66699 5.65142 2.66699 9.33332V22.6667C2.66699 26.3486 5.65176 29.3333 9.33366 29.3333H22.667C26.3489 29.3333 29.3336 26.3486 29.3336 22.6667V9.33332C29.3336 5.65142 26.3489 2.66666 22.667 2.66666Z" stroke="#00AEFF" stroke-width="2" stroke-linecap="round" stroke-linejoin="round"/>
<path d="M21.3335 15.16C21.4981 16.2697 21.3085 17.403 20.7919 18.3987C20.2752 19.3944 19.4577 20.2019 18.4557 20.7062C17.4537 21.2106 16.3181 21.3861 15.2106 21.2079C14.103 21.0297 13.0799 20.5068 12.2866 19.7136C11.4934 18.9203 10.9705 17.8972 10.7923 16.7896C10.6141 15.6821 10.7896 14.5465 11.294 13.5445C11.7983 12.5425 12.6058 11.725 13.6015 11.2083C14.5972 10.6917 15.7305 10.5021 16.8402 10.6667C17.9721 10.8345 19.02 11.362 19.8291 12.1711C20.6382 12.9802 21.1657 14.0281 21.3335 15.16Z" stroke="#00AEFF" stroke-width="2" stroke-linecap="round" stroke-linejoin="round"/>
<path d="M23.333 8.66666H23.3464" stroke="#00AEFF" stroke-width="2" stroke-linecap="round" stroke-linejoin="round"/>
</svg>
