<svg width="56" height="52" viewBox="0 0 56 52" fill="none" xmlns="http://www.w3.org/2000/svg">
<path d="M51.6712 16.3014C54.0581 16.3014 56 14.3594 56 11.9726V4.9589C56 2.57205 54.0581 0.630135 51.6712 0.630135H4.32877C1.94192 0.630135 0 2.57205 0 4.9589V11.9726C0 14.3594 1.94192 16.3014 4.32877 16.3014H27.1781V18.1644H4.32877C1.94192 18.1644 0 20.1063 0 22.4931V29.5068C0 31.8937 1.94192 33.8356 4.32877 33.8356H27.1781V35.6986H4.32877C1.94192 35.6986 0 37.6405 0 40.0274V47.0411C0 49.4279 1.94192 51.3699 4.32877 51.3699H51.6712C54.0581 51.3699 56 49.4279 56 47.0411V40.0274C56 37.6405 54.0581 35.6986 51.6712 35.6986H28.8219V33.8356H51.6712C54.0581 33.8356 56 31.8937 56 29.5068V22.4931C56 20.1063 54.0581 18.1644 51.6712 18.1644H28.8219V16.3014H51.6712ZM54.3562 40.0274V47.0411C54.3562 48.5216 53.1517 49.726 51.6712 49.726H4.32877C2.84833 49.726 1.64384 48.5216 1.64384 47.0411V40.0274C1.64384 38.5468 2.84833 37.3425 4.32877 37.3425H51.6712C53.1517 37.3425 54.3562 38.5468 54.3562 40.0274ZM54.3562 22.4931V29.5068C54.3562 30.9874 53.1517 32.1918 51.6712 32.1918H4.32877C2.84833 32.1918 1.64384 30.9874 1.64384 29.5068V22.4931C1.64384 21.0126 2.84833 19.8082 4.32877 19.8082H51.6712C53.1517 19.8082 54.3562 21.0126 54.3562 22.4931ZM1.64384 11.9726V4.9589C1.64384 3.47835 2.84833 2.27397 4.32877 2.27397H51.6712C53.1517 2.27397 54.3562 3.47835 54.3562 4.9589V11.9726C54.3562 13.4531 53.1517 14.6575 51.6712 14.6575H4.32877C2.84833 14.6575 1.64384 13.4531 1.64384 11.9726Z" fill="#00AEFF"/>
<path d="M7.83584 5.01369C5.93239 5.01369 4.38379 6.5623 4.38379 8.46575C4.38379 10.3692 5.93239 11.9178 7.83584 11.9178C9.7393 11.9178 11.2879 10.3692 11.2879 8.46575C11.2879 6.5623 9.7393 5.01369 7.83584 5.01369ZM7.83584 10.274C6.8388 10.274 6.02762 9.46279 6.02762 8.46575C6.02762 7.46871 6.8388 6.65753 7.83584 6.65753C8.83288 6.65753 9.64406 7.46871 9.64406 8.46575C9.64406 9.46279 8.83288 10.274 7.83584 10.274Z" fill="#00AEFF"/>
<path d="M15.7257 5.89041C14.3057 5.89041 13.1504 7.0457 13.1504 8.46575C13.1504 9.88581 14.3057 11.0411 15.7257 11.0411C17.1458 11.0411 18.3011 9.88581 18.3011 8.46575C18.3011 7.0457 17.1458 5.89041 15.7257 5.89041ZM15.7257 9.39726C15.2121 9.39726 14.7942 8.9794 14.7942 8.46575C14.7942 7.95211 15.2121 7.53425 15.7257 7.53425C16.2394 7.53425 16.6572 7.95211 16.6572 8.46575C16.6572 8.9794 16.2394 9.39726 15.7257 9.39726Z" fill="#00AEFF"/>
<path d="M7.83584 22.5479C5.93239 22.5479 4.38379 24.0965 4.38379 26C4.38379 27.9034 5.93239 29.4521 7.83584 29.4521C9.7393 29.4521 11.2879 27.9034 11.2879 26C11.2879 24.0965 9.7393 22.5479 7.83584 22.5479ZM7.83584 27.8082C6.8388 27.8082 6.02762 26.997 6.02762 26C6.02762 25.003 6.8388 24.1918 7.83584 24.1918C8.83288 24.1918 9.64406 25.003 9.64406 26C9.64406 26.997 8.83288 27.8082 7.83584 27.8082Z" fill="#00AEFF"/>
<path d="M15.7257 23.4247C14.3057 23.4247 13.1504 24.5799 13.1504 26C13.1504 27.42 14.3057 28.5753 15.7257 28.5753C17.1458 28.5753 18.3011 27.42 18.3011 26C18.3011 24.5799 17.1458 23.4247 15.7257 23.4247ZM15.7257 26.9315C15.2121 26.9315 14.7942 26.5136 14.7942 26C14.7942 25.4864 15.2121 25.0685 15.7257 25.0685C16.2394 25.0685 16.6572 25.4864 16.6572 26C16.6572 26.5136 16.2394 26.9315 15.7257 26.9315Z" fill="#00AEFF"/>
<path d="M49.9175 26.9315H20.986C20.5321 26.9315 20.1641 27.2994 20.1641 27.7534C20.1641 28.2074 20.5321 28.5753 20.986 28.5753H49.9175C50.3714 28.5753 50.7394 28.2074 50.7394 27.7534C50.7394 27.2994 50.3714 26.9315 49.9175 26.9315Z" fill="#00AEFF"/>
<path d="M20.1641 24.2466C20.1641 24.7006 20.5321 25.0685 20.986 25.0685H49.9175C50.3714 25.0685 50.7394 24.7006 50.7394 24.2466C50.7394 23.7925 50.3714 23.4247 49.9175 23.4247H20.986C20.5321 23.4247 20.1641 23.7925 20.1641 24.2466Z" fill="#00AEFF"/>
<path d="M50.7394 10.2192C50.7394 9.76515 50.3714 9.39725 49.9175 9.39725H20.986C20.5321 9.39725 20.1641 9.76515 20.1641 10.2192C20.1641 10.6732 20.5321 11.0411 20.986 11.0411H49.9175C50.3714 11.0411 50.7394 10.6732 50.7394 10.2192Z" fill="#00AEFF"/>
<path d="M20.986 7.53425H49.9175C50.3714 7.53425 50.7394 7.16636 50.7394 6.71233C50.7394 6.2583 50.3714 5.89041 49.9175 5.89041H20.986C20.5321 5.89041 20.1641 6.2583 20.1641 6.71233C20.1641 7.16636 20.5321 7.53425 20.986 7.53425Z" fill="#00AEFF"/>
<path d="M7.83584 40.0822C5.93239 40.0822 4.38379 41.6308 4.38379 43.5342C4.38379 45.4377 5.93239 46.9863 7.83584 46.9863C9.7393 46.9863 11.2879 45.4377 11.2879 43.5342C11.2879 41.6308 9.7393 40.0822 7.83584 40.0822ZM7.83584 45.3425C6.8388 45.3425 6.02762 44.5313 6.02762 43.5342C6.02762 42.5372 6.8388 41.726 7.83584 41.726C8.83288 41.726 9.64406 42.5372 9.64406 43.5342C9.64406 44.5313 8.83288 45.3425 7.83584 45.3425Z" fill="#00AEFF"/>
<path d="M15.7257 40.9589C14.3057 40.9589 13.1504 42.1142 13.1504 43.5342C13.1504 44.9543 14.3057 46.1096 15.7257 46.1096C17.1458 46.1096 18.3011 44.9543 18.3011 43.5342C18.3011 42.1142 17.1458 40.9589 15.7257 40.9589ZM15.7257 44.4657C15.2121 44.4657 14.7942 44.0479 14.7942 43.5342C14.7942 43.0206 15.2121 42.6027 15.7257 42.6027C16.2394 42.6027 16.6572 43.0206 16.6572 43.5342C16.6572 44.0479 16.2394 44.4657 15.7257 44.4657Z" fill="#00AEFF"/>
<path d="M49.9175 44.4658H20.986C20.5321 44.4658 20.1641 44.8336 20.1641 45.2877C20.1641 45.7417 20.5321 46.1096 20.986 46.1096H49.9175C50.3714 46.1096 50.7394 45.7417 50.7394 45.2877C50.7394 44.8336 50.3714 44.4658 49.9175 44.4658Z" fill="#00AEFF"/>
<path d="M20.1641 41.7808C20.1641 42.2348 20.5321 42.6027 20.986 42.6027H49.9175C50.3714 42.6027 50.7394 42.2348 50.7394 41.7808C50.7394 41.3268 50.3714 40.9589 49.9175 40.9589H20.986C20.5321 40.9589 20.1641 41.3268 20.1641 41.7808Z" fill="#00AEFF"/>
</svg>
